<?xml version="1.0" encoding="UTF-8"?>
<svg id="Camada_2" data-name="Camada 2" xmlns="http://www.w3.org/2000/svg" viewBox="0 0 80.93 80.93">
  <defs>
    <style>
      .cls-1 {
        fill: #fff;
      }
    </style>
  </defs>
  <g id="Camada_2-2" data-name="Camada 2">
    <g>
      <path class="cls-1" d="M39.49,24.39c-5.09-5.1-13.47-5.1-18.56,0-5.1,5.09-5.1,13.47,0,18.57,5.09,5.09,13.47,5.09,18.56,0,5.1-5.1,5.1-13.48,0-18.57ZM35.26,38.72c-2.77,2.78-7.42,2.78-10.15.05-2.77-2.78-2.77-7.42,0-10.2,2.78-2.77,7.42-2.77,10.2,0,2.73,2.73,2.73,7.38-.05,10.15Z"/>
      <path class="cls-1" d="M67.01,0H13.92C6.23,0,0,6.24,0,13.92v53.09c0,7.69,6.23,13.92,13.92,13.92h53.09c7.68,0,13.92-6.23,13.92-13.92V13.92c0-7.68-6.24-13.92-13.92-13.92ZM21.34,55.56c-2.92-1.18-5.51-2.87-7.83-5.19-9.24-9.23-9.24-24.16,0-33.4,9.24-9.24,24.16-9.24,33.4,0,9.24,9.24,9.24,24.16,0,33.4-6.96,6.97-17.02,8.56-25.57,5.19ZM60.07,63.98c-8.01,8.01-20.62,9.15-29.72,2.96l7.69-7.69c4.91,2.18,10.83,1.09,14.61-2.69,3.96-3.96,4.87-9.6,2.73-14.65l7.69-7.69c6.33,9.24,4.87,21.89-3,29.76ZM72.81,24.48c-2.05,2.04-5.42,2.04-7.46,0-2.01-2.01-2.01-5.37.04-7.42,2.05-2.05,5.42-2.05,7.42-.05,2.05,2.05,2.05,5.42,0,7.47Z"/>
    </g>
  </g>
</svg>