<?xml version="1.0" encoding="UTF-8"?>
<svg id="Camada_2" data-name="Camada 2" xmlns="http://www.w3.org/2000/svg" viewBox="0 0 217.28 49.24">
  <defs>
    <style>
      .cls-1 {
        fill: #fff;
      }
    </style>
  </defs>
  <g id="Camada_2-2" data-name="Camada 2">
    <g>
      <path class="cls-1" d="M24.03,14.83c-3.1-3.1-8.2-3.1-11.3,0-3.1,3.1-3.1,8.2,0,11.3,3.1,3.1,8.2,3.1,11.3,0,3.1-3.1,3.1-8.2,0-11.3ZM21.45,23.55c-1.69,1.69-4.51,1.69-6.17.03-1.69-1.69-1.69-4.51,0-6.2,1.69-1.69,4.51-1.69,6.2,0,1.66,1.66,1.66,4.48-.03,6.17ZM24.03,14.83c-3.1-3.1-8.2-3.1-11.3,0-3.1,3.1-3.1,8.2,0,11.3,3.1,3.1,8.2,3.1,11.3,0,3.1-3.1,3.1-8.2,0-11.3ZM21.45,23.55c-1.69,1.69-4.51,1.69-6.17.03-1.69-1.69-1.69-4.51,0-6.2,1.69-1.69,4.51-1.69,6.2,0,1.66,1.66,1.66,4.48-.03,6.17ZM24.03,14.83c-3.1-3.1-8.2-3.1-11.3,0-3.1,3.1-3.1,8.2,0,11.3,3.1,3.1,8.2,3.1,11.3,0,3.1-3.1,3.1-8.2,0-11.3ZM21.45,23.55c-1.69,1.69-4.51,1.69-6.17.03-1.69-1.69-1.69-4.51,0-6.2,1.69-1.69,4.51-1.69,6.2,0,1.66,1.66,1.66,4.48-.03,6.17ZM24.03,14.83c-3.1-3.1-8.2-3.1-11.3,0-3.1,3.1-3.1,8.2,0,11.3,3.1,3.1,8.2,3.1,11.3,0,3.1-3.1,3.1-8.2,0-11.3ZM21.45,23.55c-1.69,1.69-4.51,1.69-6.17.03-1.69-1.69-1.69-4.51,0-6.2,1.69-1.69,4.51-1.69,6.2,0,1.66,1.66,1.66,4.48-.03,6.17ZM24.03,14.83c-3.1-3.1-8.2-3.1-11.3,0-3.1,3.1-3.1,8.2,0,11.3,3.1,3.1,8.2,3.1,11.3,0,3.1-3.1,3.1-8.2,0-11.3ZM21.45,23.55c-1.69,1.69-4.51,1.69-6.17.03-1.69-1.69-1.69-4.51,0-6.2,1.69-1.69,4.51-1.69,6.2,0,1.66,1.66,1.66,4.48-.03,6.17ZM24.03,14.83c-3.1-3.1-8.2-3.1-11.3,0-3.1,3.1-3.1,8.2,0,11.3,3.1,3.1,8.2,3.1,11.3,0,3.1-3.1,3.1-8.2,0-11.3ZM21.45,23.55c-1.69,1.69-4.51,1.69-6.17.03-1.69-1.69-1.69-4.51,0-6.2,1.69-1.69,4.51-1.69,6.2,0,1.66,1.66,1.66,4.48-.03,6.17ZM40.77,0H8.47C3.79,0,0,3.79,0,8.46v32.31c0,4.67,3.79,8.47,8.47,8.47h32.3c4.68,0,8.47-3.8,8.47-8.47V8.46c0-4.67-3.79-8.46-8.47-8.46ZM12.98,33.8c-1.77-.72-3.35-1.75-4.76-3.16-5.62-5.62-5.62-14.7,0-20.32,5.62-5.62,14.7-5.62,20.32,0,5.62,5.62,5.62,14.7,0,20.32-4.23,4.24-10.35,5.21-15.56,3.16ZM36.55,38.92c-4.88,4.88-12.55,5.57-18.09,1.8l4.68-4.68c2.99,1.33,6.59.67,8.89-1.63,2.41-2.41,2.96-5.84,1.66-8.92l4.68-4.68c3.85,5.62,2.97,13.32-1.82,18.11ZM44.3,14.89c-1.25,1.24-3.3,1.24-4.54,0-1.22-1.22-1.22-3.27.03-4.52s3.29-1.24,4.51-.03c1.25,1.25,1.25,3.3,0,4.55ZM12.73,14.83c-3.1,3.1-3.1,8.2,0,11.3,3.1,3.1,8.2,3.1,11.3,0,3.1-3.1,3.1-8.2,0-11.3-3.1-3.1-8.2-3.1-11.3,0ZM21.45,23.55c-1.69,1.69-4.51,1.69-6.17.03-1.69-1.69-1.69-4.51,0-6.2,1.69-1.69,4.51-1.69,6.2,0,1.66,1.66,1.66,4.48-.03,6.17ZM24.03,14.83c-3.1-3.1-8.2-3.1-11.3,0-3.1,3.1-3.1,8.2,0,11.3,3.1,3.1,8.2,3.1,11.3,0,3.1-3.1,3.1-8.2,0-11.3ZM21.45,23.55c-1.69,1.69-4.51,1.69-6.17.03-1.69-1.69-1.69-4.51,0-6.2,1.69-1.69,4.51-1.69,6.2,0,1.66,1.66,1.66,4.48-.03,6.17ZM24.03,14.83c-3.1-3.1-8.2-3.1-11.3,0-3.1,3.1-3.1,8.2,0,11.3,3.1,3.1,8.2,3.1,11.3,0,3.1-3.1,3.1-8.2,0-11.3ZM21.45,23.55c-1.69,1.69-4.51,1.69-6.17.03-1.69-1.69-1.69-4.51,0-6.2,1.69-1.69,4.51-1.69,6.2,0,1.66,1.66,1.66,4.48-.03,6.17ZM24.03,14.83c-3.1-3.1-8.2-3.1-11.3,0-3.1,3.1-3.1,8.2,0,11.3,3.1,3.1,8.2,3.1,11.3,0,3.1-3.1,3.1-8.2,0-11.3ZM21.45,23.55c-1.69,1.69-4.51,1.69-6.17.03-1.69-1.69-1.69-4.51,0-6.2,1.69-1.69,4.51-1.69,6.2,0,1.66,1.66,1.66,4.48-.03,6.17ZM24.03,14.83c-3.1-3.1-8.2-3.1-11.3,0-3.1,3.1-3.1,8.2,0,11.3,3.1,3.1,8.2,3.1,11.3,0,3.1-3.1,3.1-8.2,0-11.3ZM21.45,23.55c-1.69,1.69-4.51,1.69-6.17.03-1.69-1.69-1.69-4.51,0-6.2,1.69-1.69,4.51-1.69,6.2,0,1.66,1.66,1.66,4.48-.03,6.17Z"/>
      <g>
        <path class="cls-1" d="M72.73,18.37c-2.43,0-4.46,2.03-4.46,4.45s2.03,4.42,4.46,4.42,4.46-2.03,4.46-4.42-2.03-4.45-4.46-4.45ZM72.73,18.37c-2.43,0-4.46,2.03-4.46,4.45s2.03,4.42,4.46,4.42,4.46-2.03,4.46-4.42-2.03-4.45-4.46-4.45ZM80.13,37.43c-1.27,3.14-4.14,5.21-7.6,5.21s-6.37-2.11-7.56-5.21h-6.72c1.27,6.68,7.28,11.7,14.28,11.7s13.05-4.9,14.32-11.7h-6.72ZM72.73,18.37c-2.43,0-4.46,2.03-4.46,4.45s2.03,4.42,4.46,4.42,4.46-2.03,4.46-4.42-2.03-4.45-4.46-4.45ZM72.73,18.37c-2.43,0-4.46,2.03-4.46,4.45s2.03,4.42,4.46,4.42,4.46-2.03,4.46-4.42-2.03-4.45-4.46-4.45ZM72.73,18.37c-2.43,0-4.46,2.03-4.46,4.45s2.03,4.42,4.46,4.42,4.46-2.03,4.46-4.42-2.03-4.45-4.46-4.45ZM72.73,18.37c-2.43,0-4.46,2.03-4.46,4.45s2.03,4.42,4.46,4.42,4.46-2.03,4.46-4.42-2.03-4.45-4.46-4.45ZM72.73,18.37c-2.43,0-4.46,2.03-4.46,4.45s2.03,4.42,4.46,4.42,4.46-2.03,4.46-4.42-2.03-4.45-4.46-4.45ZM72.73,18.37c-2.43,0-4.46,2.03-4.46,4.45s2.03,4.42,4.46,4.42,4.46-2.03,4.46-4.42-2.03-4.45-4.46-4.45ZM72.73,18.37c-2.43,0-4.46,2.03-4.46,4.45s2.03,4.42,4.46,4.42,4.46-2.03,4.46-4.42-2.03-4.45-4.46-4.45ZM72.73,18.37c-2.43,0-4.46,2.03-4.46,4.45s2.03,4.42,4.46,4.42,4.46-2.03,4.46-4.42-2.03-4.45-4.46-4.45ZM72.73,18.37c-2.43,0-4.46,2.03-4.46,4.45s2.03,4.42,4.46,4.42,4.46-2.03,4.46-4.42-2.03-4.45-4.46-4.45ZM72.73,18.37c-2.43,0-4.46,2.03-4.46,4.45s2.03,4.42,4.46,4.42,4.46-2.03,4.46-4.42-2.03-4.45-4.46-4.45ZM72.73,18.37c-2.43,0-4.46,2.03-4.46,4.45s2.03,4.42,4.46,4.42,4.46-2.03,4.46-4.42-2.03-4.45-4.46-4.45ZM72.73,18.37c-2.43,0-4.46,2.03-4.46,4.45s2.03,4.42,4.46,4.42,4.46-2.03,4.46-4.42-2.03-4.45-4.46-4.45ZM72.73,18.37c-2.43,0-4.46,2.03-4.46,4.45s2.03,4.42,4.46,4.42,4.46-2.03,4.46-4.42-2.03-4.45-4.46-4.45ZM72.73,18.37c-2.43,0-4.46,2.03-4.46,4.45s2.03,4.42,4.46,4.42,4.46-2.03,4.46-4.42-2.03-4.45-4.46-4.45ZM72.73,18.37c-2.43,0-4.46,2.03-4.46,4.45s2.03,4.42,4.46,4.42,4.46-2.03,4.46-4.42-2.03-4.45-4.46-4.45ZM72.73,18.37c-2.43,0-4.46,2.03-4.46,4.45s2.03,4.42,4.46,4.42,4.46-2.03,4.46-4.42-2.03-4.45-4.46-4.45ZM72.73,18.37c-2.43,0-4.46,2.03-4.46,4.45s2.03,4.42,4.46,4.42,4.46-2.03,4.46-4.42-2.03-4.45-4.46-4.45ZM72.73,18.37c-2.43,0-4.46,2.03-4.46,4.45s2.03,4.42,4.46,4.42,4.46-2.03,4.46-4.42-2.03-4.45-4.46-4.45ZM72.73,18.37c-2.43,0-4.46,2.03-4.46,4.45s2.03,4.42,4.46,4.42,4.46-2.03,4.46-4.42-2.03-4.45-4.46-4.45ZM72.73,18.37c-2.43,0-4.46,2.03-4.46,4.45s2.03,4.42,4.46,4.42,4.46-2.03,4.46-4.42-2.03-4.45-4.46-4.45ZM72.73,18.37c-2.43,0-4.46,2.03-4.46,4.45s2.03,4.42,4.46,4.42,4.46-2.03,4.46-4.42-2.03-4.45-4.46-4.45ZM72.73,18.37c-2.43,0-4.46,2.03-4.46,4.45s2.03,4.42,4.46,4.42,4.46-2.03,4.46-4.42-2.03-4.45-4.46-4.45ZM72.73,8.22c-8.08,0-14.6,6.53-14.6,14.6,0,2.03.39,3.9,1.15,5.69,2.27,5.22,7.36,8.92,13.45,8.92,8.08,0,14.6-6.53,14.6-14.61s-6.52-14.6-14.6-14.6ZM72.73,30.94c-4.46,0-8.12-3.66-8.12-8.12s3.66-8.11,8.12-8.11,8.12,3.66,8.12,8.11-3.66,8.12-8.12,8.12ZM72.73,18.37c-2.43,0-4.46,2.03-4.46,4.45s2.03,4.42,4.46,4.42,4.46-2.03,4.46-4.42-2.03-4.45-4.46-4.45ZM72.73,18.37c-2.43,0-4.46,2.03-4.46,4.45s2.03,4.42,4.46,4.42,4.46-2.03,4.46-4.42-2.03-4.45-4.46-4.45ZM72.73,18.37c-2.43,0-4.46,2.03-4.46,4.45s2.03,4.42,4.46,4.42,4.46-2.03,4.46-4.42-2.03-4.45-4.46-4.45ZM72.73,18.37c-2.43,0-4.46,2.03-4.46,4.45s2.03,4.42,4.46,4.42,4.46-2.03,4.46-4.42-2.03-4.45-4.46-4.45ZM72.73,18.37c-2.43,0-4.46,2.03-4.46,4.45s2.03,4.42,4.46,4.42,4.46-2.03,4.46-4.42-2.03-4.45-4.46-4.45ZM72.73,18.37c-2.43,0-4.46,2.03-4.46,4.45s2.03,4.42,4.46,4.42,4.46-2.03,4.46-4.42-2.03-4.45-4.46-4.45ZM72.73,18.37c-2.43,0-4.46,2.03-4.46,4.45s2.03,4.42,4.46,4.42,4.46-2.03,4.46-4.42-2.03-4.45-4.46-4.45ZM72.73,18.37c-2.43,0-4.46,2.03-4.46,4.45s2.03,4.42,4.46,4.42,4.46-2.03,4.46-4.42-2.03-4.45-4.46-4.45ZM72.73,18.37c-2.43,0-4.46,2.03-4.46,4.45s2.03,4.42,4.46,4.42,4.46-2.03,4.46-4.42-2.03-4.45-4.46-4.45ZM72.73,18.37c-2.43,0-4.46,2.03-4.46,4.45s2.03,4.42,4.46,4.42,4.46-2.03,4.46-4.42-2.03-4.45-4.46-4.45ZM72.73,18.37c-2.43,0-4.46,2.03-4.46,4.45s2.03,4.42,4.46,4.42,4.46-2.03,4.46-4.42-2.03-4.45-4.46-4.45ZM72.73,18.37c-2.43,0-4.46,2.03-4.46,4.45s2.03,4.42,4.46,4.42,4.46-2.03,4.46-4.42-2.03-4.45-4.46-4.45ZM72.73,18.37c-2.43,0-4.46,2.03-4.46,4.45s2.03,4.42,4.46,4.42,4.46-2.03,4.46-4.42-2.03-4.45-4.46-4.45ZM72.73,18.37c-2.43,0-4.46,2.03-4.46,4.45s2.03,4.42,4.46,4.42,4.46-2.03,4.46-4.42-2.03-4.45-4.46-4.45ZM72.73,18.37c-2.43,0-4.46,2.03-4.46,4.45s2.03,4.42,4.46,4.42,4.46-2.03,4.46-4.42-2.03-4.45-4.46-4.45ZM72.73,18.37c-2.43,0-4.46,2.03-4.46,4.45s2.03,4.42,4.46,4.42,4.46-2.03,4.46-4.42-2.03-4.45-4.46-4.45ZM72.73,18.37c-2.43,0-4.46,2.03-4.46,4.45s2.03,4.42,4.46,4.42,4.46-2.03,4.46-4.42-2.03-4.45-4.46-4.45ZM72.73,18.37c-2.43,0-4.46,2.03-4.46,4.45s2.03,4.42,4.46,4.42,4.46-2.03,4.46-4.42-2.03-4.45-4.46-4.45ZM72.73,18.37c-2.43,0-4.46,2.03-4.46,4.45s2.03,4.42,4.46,4.42,4.46-2.03,4.46-4.42-2.03-4.45-4.46-4.45ZM72.73,18.37c-2.43,0-4.46,2.03-4.46,4.45s2.03,4.42,4.46,4.42,4.46-2.03,4.46-4.42-2.03-4.45-4.46-4.45ZM72.73,18.37c-2.43,0-4.46,2.03-4.46,4.45s2.03,4.42,4.46,4.42,4.46-2.03,4.46-4.42-2.03-4.45-4.46-4.45ZM72.73,18.37c-2.43,0-4.46,2.03-4.46,4.45s2.03,4.42,4.46,4.42,4.46-2.03,4.46-4.42-2.03-4.45-4.46-4.45ZM72.73,18.37c-2.43,0-4.46,2.03-4.46,4.45s2.03,4.42,4.46,4.42,4.46-2.03,4.46-4.42-2.03-4.45-4.46-4.45Z"/>
        <path class="cls-1" d="M92.11,22.78v14.65h6.52v-14.65c0-4.45,3.66-8.07,8.12-8.07v-6.49c-8.08,0-14.64,6.45-14.64,14.56Z"/>
        <path class="cls-1" d="M123.38,8.22c-8.12,0-14.64,6.53-14.64,14.6s6.52,14.61,14.64,14.61c1.63,0,3.26-.32,4.74-.84v-7.24c-1.32.99-2.99,1.59-4.74,1.59-4.5,0-8.16-3.7-8.16-8.12s3.66-8.15,8.16-8.15,8.08,3.66,8.08,8.15v14.61h6.48v-14.61c0-8.07-6.52-14.6-14.56-14.6Z"/>
        <path class="cls-1" d="M165.44.11v22.71c0,4.42-3.66,8.12-8.08,8.12s-8.16-3.7-8.16-8.12,3.66-8.15,8.16-8.15c1.79,0,3.46.59,4.77,1.59v-7.24c-1.55-.6-3.06-.8-4.77-.8-8.08,0-14.64,6.53-14.64,14.6s6.56,14.61,14.64,14.61,14.6-6.57,14.6-14.61V.11h-6.52Z"/>
        <path class="cls-1" d="M187.2,25.57h18.5c.16-.95.28-1.91.28-2.82,0-2.59-.75-6.13-3.42-9.32-2.71-3.18-6.72-5.21-11.18-5.21-8.08,0-14.64,6.53-14.64,14.6s6.56,14.61,14.64,14.61c1.71,0,3.34-.28,4.97-.88v-7.36c-1.39,1.08-3.06,1.75-4.97,1.75-4.66,0-8.12-3.82-8.12-8.12s3.5-8.15,8.12-8.15c3.14,0,5.81,1.79,7.2,4.37h-11.38v6.53Z"/>
        <path class="cls-1" d="M214.02,31.02c-1.79,0-3.26,1.47-3.26,3.22s1.47,3.27,3.26,3.27,3.26-1.48,3.26-3.27-1.47-3.22-3.26-3.22Z"/>
      </g>
    </g>
  </g>
</svg>