<?xml version="1.0" encoding="UTF-8"?>
<svg id="Camada_2" data-name="Camada 2" xmlns="http://www.w3.org/2000/svg" viewBox="0 0 217.28 49.24">
  <defs>
    <style>
      .cls-1 {
        fill: #1c1c1c;
      }

      .cls-2 {
        fill: #cf9;
      }
    </style>
  </defs>
  <g id="Camada_2-2" data-name="Camada 2">
    <g>
      <path class="cls-2" d="M24.03,14.84c-3.1-3.11-8.2-3.11-11.3,0-3.1,3.1-3.1,8.19,0,11.29,3.1,3.11,8.2,3.11,11.3,0,3.1-3.1,3.1-8.19,0-11.29ZM21.45,23.56c-1.69,1.69-4.51,1.69-6.17.03-1.69-1.69-1.69-4.52,0-6.21,1.69-1.69,4.51-1.69,6.2,0,1.66,1.67,1.66,4.49-.03,6.18ZM24.03,14.84c-3.1-3.11-8.2-3.11-11.3,0-3.1,3.1-3.1,8.19,0,11.29,3.1,3.11,8.2,3.11,11.3,0,3.1-3.1,3.1-8.19,0-11.29ZM21.45,23.56c-1.69,1.69-4.51,1.69-6.17.03-1.69-1.69-1.69-4.52,0-6.21,1.69-1.69,4.51-1.69,6.2,0,1.66,1.67,1.66,4.49-.03,6.18ZM24.03,14.84c-3.1-3.11-8.2-3.11-11.3,0-3.1,3.1-3.1,8.19,0,11.29,3.1,3.11,8.2,3.11,11.3,0,3.1-3.1,3.1-8.19,0-11.29ZM21.45,23.56c-1.69,1.69-4.51,1.69-6.17.03-1.69-1.69-1.69-4.52,0-6.21,1.69-1.69,4.51-1.69,6.2,0,1.66,1.67,1.66,4.49-.03,6.18ZM24.03,14.84c-3.1-3.11-8.2-3.11-11.3,0-3.1,3.1-3.1,8.19,0,11.29,3.1,3.11,8.2,3.11,11.3,0,3.1-3.1,3.1-8.19,0-11.29ZM21.45,23.56c-1.69,1.69-4.51,1.69-6.17.03-1.69-1.69-1.69-4.52,0-6.21,1.69-1.69,4.51-1.69,6.2,0,1.66,1.67,1.66,4.49-.03,6.18ZM24.03,14.84c-3.1-3.11-8.2-3.11-11.3,0-3.1,3.1-3.1,8.19,0,11.29,3.1,3.11,8.2,3.11,11.3,0,3.1-3.1,3.1-8.19,0-11.29ZM21.45,23.56c-1.69,1.69-4.51,1.69-6.17.03-1.69-1.69-1.69-4.52,0-6.21,1.69-1.69,4.51-1.69,6.2,0,1.66,1.67,1.66,4.49-.03,6.18ZM24.03,14.84c-3.1-3.11-8.2-3.11-11.3,0-3.1,3.1-3.1,8.19,0,11.29,3.1,3.11,8.2,3.11,11.3,0,3.1-3.1,3.1-8.19,0-11.29ZM21.45,23.56c-1.69,1.69-4.51,1.69-6.17.03-1.69-1.69-1.69-4.52,0-6.21,1.69-1.69,4.51-1.69,6.2,0,1.66,1.67,1.66,4.49-.03,6.18ZM24.03,14.84c-3.1-3.11-8.2-3.11-11.3,0-3.1,3.1-3.1,8.19,0,11.29,3.1,3.11,8.2,3.11,11.3,0,3.1-3.1,3.1-8.19,0-11.29ZM21.45,23.56c-1.69,1.69-4.51,1.69-6.17.03-1.69-1.69-1.69-4.52,0-6.21,1.69-1.69,4.51-1.69,6.2,0,1.66,1.67,1.66,4.49-.03,6.18ZM24.03,14.84c-3.1-3.11-8.2-3.11-11.3,0-3.1,3.1-3.1,8.19,0,11.29,3.1,3.11,8.2,3.11,11.3,0,3.1-3.1,3.1-8.19,0-11.29ZM21.45,23.56c-1.69,1.69-4.51,1.69-6.17.03-1.69-1.69-1.69-4.52,0-6.21,1.69-1.69,4.51-1.69,6.2,0,1.66,1.67,1.66,4.49-.03,6.18ZM24.03,14.84c-3.1-3.11-8.2-3.11-11.3,0-3.1,3.1-3.1,8.19,0,11.29,3.1,3.11,8.2,3.11,11.3,0,3.1-3.1,3.1-8.19,0-11.29ZM21.45,23.56c-1.69,1.69-4.51,1.69-6.17.03-1.69-1.69-1.69-4.52,0-6.21,1.69-1.69,4.51-1.69,6.2,0,1.66,1.67,1.66,4.49-.03,6.18ZM24.03,14.84c-3.1-3.11-8.2-3.11-11.3,0-3.1,3.1-3.1,8.19,0,11.29,3.1,3.11,8.2,3.11,11.3,0,3.1-3.1,3.1-8.19,0-11.29ZM21.45,23.56c-1.69,1.69-4.51,1.69-6.17.03-1.69-1.69-1.69-4.52,0-6.21,1.69-1.69,4.51-1.69,6.2,0,1.66,1.67,1.66,4.49-.03,6.18ZM24.03,14.84c-3.1-3.11-8.2-3.11-11.3,0-3.1,3.1-3.1,8.19,0,11.29,3.1,3.11,8.2,3.11,11.3,0,3.1-3.1,3.1-8.19,0-11.29ZM21.45,23.56c-1.69,1.69-4.51,1.69-6.17.03-1.69-1.69-1.69-4.52,0-6.21,1.69-1.69,4.51-1.69,6.2,0,1.66,1.67,1.66,4.49-.03,6.18ZM24.03,14.84c-3.1-3.11-8.2-3.11-11.3,0-3.1,3.1-3.1,8.19,0,11.29,3.1,3.11,8.2,3.11,11.3,0,3.1-3.1,3.1-8.19,0-11.29ZM21.45,23.56c-1.69,1.69-4.51,1.69-6.17.03-1.69-1.69-1.69-4.52,0-6.21,1.69-1.69,4.51-1.69,6.2,0,1.66,1.67,1.66,4.49-.03,6.18ZM24.03,14.84c-3.1-3.11-8.2-3.11-11.3,0-3.1,3.1-3.1,8.19,0,11.29,3.1,3.11,8.2,3.11,11.3,0,3.1-3.1,3.1-8.19,0-11.29ZM21.45,23.56c-1.69,1.69-4.51,1.69-6.17.03-1.69-1.69-1.69-4.52,0-6.21,1.69-1.69,4.51-1.69,6.2,0,1.66,1.67,1.66,4.49-.03,6.18ZM24.03,14.84c-3.1-3.11-8.2-3.11-11.3,0-3.1,3.1-3.1,8.19,0,11.29,3.1,3.11,8.2,3.11,11.3,0,3.1-3.1,3.1-8.19,0-11.29ZM21.45,23.56c-1.69,1.69-4.51,1.69-6.17.03-1.69-1.69-1.69-4.52,0-6.21,1.69-1.69,4.51-1.69,6.2,0,1.66,1.67,1.66,4.49-.03,6.18ZM24.03,14.84c-3.1-3.11-8.2-3.11-11.3,0-3.1,3.1-3.1,8.19,0,11.29,3.1,3.11,8.2,3.11,11.3,0,3.1-3.1,3.1-8.19,0-11.29ZM21.45,23.56c-1.69,1.69-4.51,1.69-6.17.03-1.69-1.69-1.69-4.52,0-6.21,1.69-1.69,4.51-1.69,6.2,0,1.66,1.67,1.66,4.49-.03,6.18ZM24.03,14.84c-3.1-3.11-8.2-3.11-11.3,0-3.1,3.1-3.1,8.19,0,11.29,3.1,3.11,8.2,3.11,11.3,0,3.1-3.1,3.1-8.19,0-11.29ZM21.45,23.56c-1.69,1.69-4.51,1.69-6.17.03-1.69-1.69-1.69-4.52,0-6.21,1.69-1.69,4.51-1.69,6.2,0,1.66,1.67,1.66,4.49-.03,6.18ZM24.03,14.84c-3.1-3.11-8.2-3.11-11.3,0-3.1,3.1-3.1,8.19,0,11.29,3.1,3.11,8.2,3.11,11.3,0,3.1-3.1,3.1-8.19,0-11.29ZM21.45,23.56c-1.69,1.69-4.51,1.69-6.17.03-1.69-1.69-1.69-4.52,0-6.21,1.69-1.69,4.51-1.69,6.2,0,1.66,1.67,1.66,4.49-.03,6.18ZM24.03,14.84c-3.1-3.11-8.2-3.11-11.3,0-3.1,3.1-3.1,8.19,0,11.29,3.1,3.11,8.2,3.11,11.3,0,3.1-3.1,3.1-8.19,0-11.29ZM21.45,23.56c-1.69,1.69-4.51,1.69-6.17.03-1.69-1.69-1.69-4.52,0-6.21,1.69-1.69,4.51-1.69,6.2,0,1.66,1.67,1.66,4.49-.03,6.18ZM24.03,14.84c-3.1-3.11-8.2-3.11-11.3,0-3.1,3.1-3.1,8.19,0,11.29,3.1,3.11,8.2,3.11,11.3,0,3.1-3.1,3.1-8.19,0-11.29ZM21.45,23.56c-1.69,1.69-4.51,1.69-6.17.03-1.69-1.69-1.69-4.52,0-6.21,1.69-1.69,4.51-1.69,6.2,0,1.66,1.67,1.66,4.49-.03,6.18ZM24.03,14.84c-3.1-3.11-8.2-3.11-11.3,0-3.1,3.1-3.1,8.19,0,11.29,3.1,3.11,8.2,3.11,11.3,0,3.1-3.1,3.1-8.19,0-11.29ZM21.45,23.56c-1.69,1.69-4.51,1.69-6.17.03-1.69-1.69-1.69-4.52,0-6.21,1.69-1.69,4.51-1.69,6.2,0,1.66,1.67,1.66,4.49-.03,6.18ZM24.03,14.84c-3.1-3.11-8.2-3.11-11.3,0-3.1,3.1-3.1,8.19,0,11.29,3.1,3.11,8.2,3.11,11.3,0,3.1-3.1,3.1-8.19,0-11.29ZM21.45,23.56c-1.69,1.69-4.51,1.69-6.17.03-1.69-1.69-1.69-4.52,0-6.21,1.69-1.69,4.51-1.69,6.2,0,1.66,1.67,1.66,4.49-.03,6.18ZM24.03,14.84c-3.1-3.11-8.2-3.11-11.3,0-3.1,3.1-3.1,8.19,0,11.29,3.1,3.11,8.2,3.11,11.3,0,3.1-3.1,3.1-8.19,0-11.29ZM21.45,23.56c-1.69,1.69-4.51,1.69-6.17.03-1.69-1.69-1.69-4.52,0-6.21,1.69-1.69,4.51-1.69,6.2,0,1.66,1.67,1.66,4.49-.03,6.18ZM40.77,0H8.47C3.79,0,0,3.79,0,8.47v32.3c0,4.68,3.79,8.47,8.47,8.47h32.3c4.68,0,8.47-3.79,8.47-8.47V8.47c0-4.68-3.79-8.47-8.47-8.47ZM12.98,33.8c-1.77-.72-3.35-1.74-4.76-3.15-5.62-5.62-5.62-14.71,0-20.33s14.7-5.62,20.32,0c5.62,5.62,5.62,14.71,0,20.33-4.23,4.23-10.35,5.2-15.56,3.15ZM36.55,38.93c-4.88,4.87-12.55,5.56-18.09,1.8l4.68-4.68c2.99,1.33,6.59.66,8.89-1.64,2.41-2.41,2.96-5.84,1.66-8.91l4.68-4.68c3.85,5.62,2.97,13.32-1.82,18.11ZM44.3,14.89c-1.25,1.25-3.3,1.25-4.54,0-1.22-1.22-1.22-3.27.03-4.51,1.24-1.25,3.29-1.25,4.51-.03,1.25,1.25,1.25,3.3,0,4.54ZM12.73,14.84c-3.1,3.1-3.1,8.19,0,11.29,3.1,3.11,8.2,3.11,11.3,0,3.1-3.1,3.1-8.19,0-11.29-3.1-3.11-8.2-3.11-11.3,0ZM21.45,23.56c-1.69,1.69-4.51,1.69-6.17.03-1.69-1.69-1.69-4.52,0-6.21,1.69-1.69,4.51-1.69,6.2,0,1.66,1.67,1.66,4.49-.03,6.18ZM24.03,14.84c-3.1-3.11-8.2-3.11-11.3,0-3.1,3.1-3.1,8.19,0,11.29,3.1,3.11,8.2,3.11,11.3,0,3.1-3.1,3.1-8.19,0-11.29ZM21.45,23.56c-1.69,1.69-4.51,1.69-6.17.03-1.69-1.69-1.69-4.52,0-6.21,1.69-1.69,4.51-1.69,6.2,0,1.66,1.67,1.66,4.49-.03,6.18ZM24.03,14.84c-3.1-3.11-8.2-3.11-11.3,0-3.1,3.1-3.1,8.19,0,11.29,3.1,3.11,8.2,3.11,11.3,0,3.1-3.1,3.1-8.19,0-11.29ZM21.45,23.56c-1.69,1.69-4.51,1.69-6.17.03-1.69-1.69-1.69-4.52,0-6.21,1.69-1.69,4.51-1.69,6.2,0,1.66,1.67,1.66,4.49-.03,6.18ZM24.03,14.84c-3.1-3.11-8.2-3.11-11.3,0-3.1,3.1-3.1,8.19,0,11.29,3.1,3.11,8.2,3.11,11.3,0,3.1-3.1,3.1-8.19,0-11.29ZM21.45,23.56c-1.69,1.69-4.51,1.69-6.17.03-1.69-1.69-1.69-4.52,0-6.21,1.69-1.69,4.51-1.69,6.2,0,1.66,1.67,1.66,4.49-.03,6.18ZM24.03,14.84c-3.1-3.11-8.2-3.11-11.3,0-3.1,3.1-3.1,8.19,0,11.29,3.1,3.11,8.2,3.11,11.3,0,3.1-3.1,3.1-8.19,0-11.29ZM21.45,23.56c-1.69,1.69-4.51,1.69-6.17.03-1.69-1.69-1.69-4.52,0-6.21,1.69-1.69,4.51-1.69,6.2,0,1.66,1.67,1.66,4.49-.03,6.18ZM24.03,14.84c-3.1-3.11-8.2-3.11-11.3,0-3.1,3.1-3.1,8.19,0,11.29,3.1,3.11,8.2,3.11,11.3,0,3.1-3.1,3.1-8.19,0-11.29ZM21.45,23.56c-1.69,1.69-4.51,1.69-6.17.03-1.69-1.69-1.69-4.52,0-6.21,1.69-1.69,4.51-1.69,6.2,0,1.66,1.67,1.66,4.49-.03,6.18ZM24.03,14.84c-3.1-3.11-8.2-3.11-11.3,0-3.1,3.1-3.1,8.19,0,11.29,3.1,3.11,8.2,3.11,11.3,0,3.1-3.1,3.1-8.19,0-11.29ZM21.45,23.56c-1.69,1.69-4.51,1.69-6.17.03-1.69-1.69-1.69-4.52,0-6.21,1.69-1.69,4.51-1.69,6.2,0,1.66,1.67,1.66,4.49-.03,6.18ZM24.03,14.84c-3.1-3.11-8.2-3.11-11.3,0-3.1,3.1-3.1,8.19,0,11.29,3.1,3.11,8.2,3.11,11.3,0,3.1-3.1,3.1-8.19,0-11.29ZM21.45,23.56c-1.69,1.69-4.51,1.69-6.17.03-1.69-1.69-1.69-4.52,0-6.21,1.69-1.69,4.51-1.69,6.2,0,1.66,1.67,1.66,4.49-.03,6.18ZM24.03,14.84c-3.1-3.11-8.2-3.11-11.3,0-3.1,3.1-3.1,8.19,0,11.29,3.1,3.11,8.2,3.11,11.3,0,3.1-3.1,3.1-8.19,0-11.29ZM21.45,23.56c-1.69,1.69-4.51,1.69-6.17.03-1.69-1.69-1.69-4.52,0-6.21,1.69-1.69,4.51-1.69,6.2,0,1.66,1.67,1.66,4.49-.03,6.18ZM24.03,14.84c-3.1-3.11-8.2-3.11-11.3,0-3.1,3.1-3.1,8.19,0,11.29,3.1,3.11,8.2,3.11,11.3,0,3.1-3.1,3.1-8.19,0-11.29ZM21.45,23.56c-1.69,1.69-4.51,1.69-6.17.03-1.69-1.69-1.69-4.52,0-6.21,1.69-1.69,4.51-1.69,6.2,0,1.66,1.67,1.66,4.49-.03,6.18ZM24.03,14.84c-3.1-3.11-8.2-3.11-11.3,0-3.1,3.1-3.1,8.19,0,11.29,3.1,3.11,8.2,3.11,11.3,0,3.1-3.1,3.1-8.19,0-11.29ZM21.45,23.56c-1.69,1.69-4.51,1.69-6.17.03-1.69-1.69-1.69-4.52,0-6.21,1.69-1.69,4.51-1.69,6.2,0,1.66,1.67,1.66,4.49-.03,6.18ZM24.03,14.84c-3.1-3.11-8.2-3.11-11.3,0-3.1,3.1-3.1,8.19,0,11.29,3.1,3.11,8.2,3.11,11.3,0,3.1-3.1,3.1-8.19,0-11.29ZM21.45,23.56c-1.69,1.69-4.51,1.69-6.17.03-1.69-1.69-1.69-4.52,0-6.21,1.69-1.69,4.51-1.69,6.2,0,1.66,1.67,1.66,4.49-.03,6.18ZM24.03,14.84c-3.1-3.11-8.2-3.11-11.3,0-3.1,3.1-3.1,8.19,0,11.29,3.1,3.11,8.2,3.11,11.3,0,3.1-3.1,3.1-8.19,0-11.29ZM21.45,23.56c-1.69,1.69-4.51,1.69-6.17.03-1.69-1.69-1.69-4.52,0-6.21,1.69-1.69,4.51-1.69,6.2,0,1.66,1.67,1.66,4.49-.03,6.18ZM24.03,14.84c-3.1-3.11-8.2-3.11-11.3,0-3.1,3.1-3.1,8.19,0,11.29,3.1,3.11,8.2,3.11,11.3,0,3.1-3.1,3.1-8.19,0-11.29ZM21.45,23.56c-1.69,1.69-4.51,1.69-6.17.03-1.69-1.69-1.69-4.52,0-6.21,1.69-1.69,4.51-1.69,6.2,0,1.66,1.67,1.66,4.49-.03,6.18ZM24.03,14.84c-3.1-3.11-8.2-3.11-11.3,0-3.1,3.1-3.1,8.19,0,11.29,3.1,3.11,8.2,3.11,11.3,0,3.1-3.1,3.1-8.19,0-11.29ZM21.45,23.56c-1.69,1.69-4.51,1.69-6.17.03-1.69-1.69-1.69-4.52,0-6.21,1.69-1.69,4.51-1.69,6.2,0,1.66,1.67,1.66,4.49-.03,6.18ZM24.03,14.84c-3.1-3.11-8.2-3.11-11.3,0-3.1,3.1-3.1,8.19,0,11.29,3.1,3.11,8.2,3.11,11.3,0,3.1-3.1,3.1-8.19,0-11.29ZM21.45,23.56c-1.69,1.69-4.51,1.69-6.17.03-1.69-1.69-1.69-4.52,0-6.21,1.69-1.69,4.51-1.69,6.2,0,1.66,1.67,1.66,4.49-.03,6.18ZM24.03,14.84c-3.1-3.11-8.2-3.11-11.3,0-3.1,3.1-3.1,8.19,0,11.29,3.1,3.11,8.2,3.11,11.3,0,3.1-3.1,3.1-8.19,0-11.29ZM21.45,23.56c-1.69,1.69-4.51,1.69-6.17.03-1.69-1.69-1.69-4.52,0-6.21,1.69-1.69,4.51-1.69,6.2,0,1.66,1.67,1.66,4.49-.03,6.18ZM24.03,14.84c-3.1-3.11-8.2-3.11-11.3,0-3.1,3.1-3.1,8.19,0,11.29,3.1,3.11,8.2,3.11,11.3,0,3.1-3.1,3.1-8.19,0-11.29ZM21.45,23.56c-1.69,1.69-4.51,1.69-6.17.03-1.69-1.69-1.69-4.52,0-6.21,1.69-1.69,4.51-1.69,6.2,0,1.66,1.67,1.66,4.49-.03,6.18ZM24.03,14.84c-3.1-3.11-8.2-3.11-11.3,0-3.1,3.1-3.1,8.19,0,11.29,3.1,3.11,8.2,3.11,11.3,0,3.1-3.1,3.1-8.19,0-11.29ZM21.45,23.56c-1.69,1.69-4.51,1.69-6.17.03-1.69-1.69-1.69-4.52,0-6.21,1.69-1.69,4.51-1.69,6.2,0,1.66,1.67,1.66,4.49-.03,6.18ZM24.03,14.84c-3.1-3.11-8.2-3.11-11.3,0-3.1,3.1-3.1,8.19,0,11.29,3.1,3.11,8.2,3.11,11.3,0,3.1-3.1,3.1-8.19,0-11.29ZM21.45,23.56c-1.69,1.69-4.51,1.69-6.17.03-1.69-1.69-1.69-4.52,0-6.21,1.69-1.69,4.51-1.69,6.2,0,1.66,1.67,1.66,4.49-.03,6.18ZM24.03,14.84c-3.1-3.11-8.2-3.11-11.3,0-3.1,3.1-3.1,8.19,0,11.29,3.1,3.11,8.2,3.11,11.3,0,3.1-3.1,3.1-8.19,0-11.29ZM21.45,23.56c-1.69,1.69-4.51,1.69-6.17.03-1.69-1.69-1.69-4.52,0-6.21,1.69-1.69,4.51-1.69,6.2,0,1.66,1.67,1.66,4.49-.03,6.18Z"/>
      <g>
        <path class="cls-1" d="M72.73,18.37c-2.43,0-4.46,2.03-4.46,4.46s2.03,4.42,4.46,4.42,4.46-2.03,4.46-4.42-2.03-4.46-4.46-4.46ZM72.73,18.37c-2.43,0-4.46,2.03-4.46,4.46s2.03,4.42,4.46,4.42,4.46-2.03,4.46-4.42-2.03-4.46-4.46-4.46ZM80.13,37.43c-1.27,3.15-4.14,5.21-7.6,5.21s-6.37-2.1-7.56-5.21h-6.72c1.27,6.69,7.28,11.7,14.28,11.7s13.05-4.89,14.32-11.7h-6.72ZM72.73,18.37c-2.43,0-4.46,2.03-4.46,4.46s2.03,4.42,4.46,4.42,4.46-2.03,4.46-4.42-2.03-4.46-4.46-4.46ZM72.73,18.37c-2.43,0-4.46,2.03-4.46,4.46s2.03,4.42,4.46,4.42,4.46-2.03,4.46-4.42-2.03-4.46-4.46-4.46ZM72.73,18.37c-2.43,0-4.46,2.03-4.46,4.46s2.03,4.42,4.46,4.42,4.46-2.03,4.46-4.42-2.03-4.46-4.46-4.46ZM72.73,18.37c-2.43,0-4.46,2.03-4.46,4.46s2.03,4.42,4.46,4.42,4.46-2.03,4.46-4.42-2.03-4.46-4.46-4.46ZM72.73,18.37c-2.43,0-4.46,2.03-4.46,4.46s2.03,4.42,4.46,4.42,4.46-2.03,4.46-4.42-2.03-4.46-4.46-4.46ZM72.73,18.37c-2.43,0-4.46,2.03-4.46,4.46s2.03,4.42,4.46,4.42,4.46-2.03,4.46-4.42-2.03-4.46-4.46-4.46ZM72.73,18.37c-2.43,0-4.46,2.03-4.46,4.46s2.03,4.42,4.46,4.42,4.46-2.03,4.46-4.42-2.03-4.46-4.46-4.46ZM72.73,18.37c-2.43,0-4.46,2.03-4.46,4.46s2.03,4.42,4.46,4.42,4.46-2.03,4.46-4.42-2.03-4.46-4.46-4.46ZM72.73,18.37c-2.43,0-4.46,2.03-4.46,4.46s2.03,4.42,4.46,4.42,4.46-2.03,4.46-4.42-2.03-4.46-4.46-4.46ZM72.73,18.37c-2.43,0-4.46,2.03-4.46,4.46s2.03,4.42,4.46,4.42,4.46-2.03,4.46-4.42-2.03-4.46-4.46-4.46ZM72.73,18.37c-2.43,0-4.46,2.03-4.46,4.46s2.03,4.42,4.46,4.42,4.46-2.03,4.46-4.42-2.03-4.46-4.46-4.46ZM72.73,18.37c-2.43,0-4.46,2.03-4.46,4.46s2.03,4.42,4.46,4.42,4.46-2.03,4.46-4.42-2.03-4.46-4.46-4.46ZM72.73,18.37c-2.43,0-4.46,2.03-4.46,4.46s2.03,4.42,4.46,4.42,4.46-2.03,4.46-4.42-2.03-4.46-4.46-4.46ZM72.73,18.37c-2.43,0-4.46,2.03-4.46,4.46s2.03,4.42,4.46,4.42,4.46-2.03,4.46-4.42-2.03-4.46-4.46-4.46ZM72.73,18.37c-2.43,0-4.46,2.03-4.46,4.46s2.03,4.42,4.46,4.42,4.46-2.03,4.46-4.42-2.03-4.46-4.46-4.46ZM72.73,18.37c-2.43,0-4.46,2.03-4.46,4.46s2.03,4.42,4.46,4.42,4.46-2.03,4.46-4.42-2.03-4.46-4.46-4.46ZM72.73,18.37c-2.43,0-4.46,2.03-4.46,4.46s2.03,4.42,4.46,4.42,4.46-2.03,4.46-4.42-2.03-4.46-4.46-4.46ZM72.73,18.37c-2.43,0-4.46,2.03-4.46,4.46s2.03,4.42,4.46,4.42,4.46-2.03,4.46-4.42-2.03-4.46-4.46-4.46ZM72.73,18.37c-2.43,0-4.46,2.03-4.46,4.46s2.03,4.42,4.46,4.42,4.46-2.03,4.46-4.42-2.03-4.46-4.46-4.46ZM72.73,18.37c-2.43,0-4.46,2.03-4.46,4.46s2.03,4.42,4.46,4.42,4.46-2.03,4.46-4.42-2.03-4.46-4.46-4.46ZM72.73,18.37c-2.43,0-4.46,2.03-4.46,4.46s2.03,4.42,4.46,4.42,4.46-2.03,4.46-4.42-2.03-4.46-4.46-4.46ZM72.73,18.37c-2.43,0-4.46,2.03-4.46,4.46s2.03,4.42,4.46,4.42,4.46-2.03,4.46-4.42-2.03-4.46-4.46-4.46ZM72.73,8.23c-8.08,0-14.6,6.52-14.6,14.6,0,2.03.39,3.9,1.15,5.69,2.27,5.21,7.36,8.91,13.45,8.91,8.08,0,14.6-6.52,14.6-14.6s-6.52-14.6-14.6-14.6ZM72.73,30.95c-4.46,0-8.12-3.66-8.12-8.12s3.66-8.12,8.12-8.12,8.12,3.66,8.12,8.12-3.66,8.12-8.12,8.12ZM72.73,18.37c-2.43,0-4.46,2.03-4.46,4.46s2.03,4.42,4.46,4.42,4.46-2.03,4.46-4.42-2.03-4.46-4.46-4.46ZM72.73,18.37c-2.43,0-4.46,2.03-4.46,4.46s2.03,4.42,4.46,4.42,4.46-2.03,4.46-4.42-2.03-4.46-4.46-4.46ZM72.73,18.37c-2.43,0-4.46,2.03-4.46,4.46s2.03,4.42,4.46,4.42,4.46-2.03,4.46-4.42-2.03-4.46-4.46-4.46ZM72.73,18.37c-2.43,0-4.46,2.03-4.46,4.46s2.03,4.42,4.46,4.42,4.46-2.03,4.46-4.42-2.03-4.46-4.46-4.46ZM72.73,18.37c-2.43,0-4.46,2.03-4.46,4.46s2.03,4.42,4.46,4.42,4.46-2.03,4.46-4.42-2.03-4.46-4.46-4.46ZM72.73,18.37c-2.43,0-4.46,2.03-4.46,4.46s2.03,4.42,4.46,4.42,4.46-2.03,4.46-4.42-2.03-4.46-4.46-4.46ZM72.73,18.37c-2.43,0-4.46,2.03-4.46,4.46s2.03,4.42,4.46,4.42,4.46-2.03,4.46-4.42-2.03-4.46-4.46-4.46ZM72.73,18.37c-2.43,0-4.46,2.03-4.46,4.46s2.03,4.42,4.46,4.42,4.46-2.03,4.46-4.42-2.03-4.46-4.46-4.46ZM72.73,18.37c-2.43,0-4.46,2.03-4.46,4.46s2.03,4.42,4.46,4.42,4.46-2.03,4.46-4.42-2.03-4.46-4.46-4.46ZM72.73,18.37c-2.43,0-4.46,2.03-4.46,4.46s2.03,4.42,4.46,4.42,4.46-2.03,4.46-4.42-2.03-4.46-4.46-4.46ZM72.73,18.37c-2.43,0-4.46,2.03-4.46,4.46s2.03,4.42,4.46,4.42,4.46-2.03,4.46-4.42-2.03-4.46-4.46-4.46ZM72.73,18.37c-2.43,0-4.46,2.03-4.46,4.46s2.03,4.42,4.46,4.42,4.46-2.03,4.46-4.42-2.03-4.46-4.46-4.46ZM72.73,18.37c-2.43,0-4.46,2.03-4.46,4.46s2.03,4.42,4.46,4.42,4.46-2.03,4.46-4.42-2.03-4.46-4.46-4.46ZM72.73,18.37c-2.43,0-4.46,2.03-4.46,4.46s2.03,4.42,4.46,4.42,4.46-2.03,4.46-4.42-2.03-4.46-4.46-4.46ZM72.73,18.37c-2.43,0-4.46,2.03-4.46,4.46s2.03,4.42,4.46,4.42,4.46-2.03,4.46-4.42-2.03-4.46-4.46-4.46ZM72.73,18.37c-2.43,0-4.46,2.03-4.46,4.46s2.03,4.42,4.46,4.42,4.46-2.03,4.46-4.42-2.03-4.46-4.46-4.46ZM72.73,18.37c-2.43,0-4.46,2.03-4.46,4.46s2.03,4.42,4.46,4.42,4.46-2.03,4.46-4.42-2.03-4.46-4.46-4.46ZM72.73,18.37c-2.43,0-4.46,2.03-4.46,4.46s2.03,4.42,4.46,4.42,4.46-2.03,4.46-4.42-2.03-4.46-4.46-4.46ZM72.73,18.37c-2.43,0-4.46,2.03-4.46,4.46s2.03,4.42,4.46,4.42,4.46-2.03,4.46-4.42-2.03-4.46-4.46-4.46ZM72.73,18.37c-2.43,0-4.46,2.03-4.46,4.46s2.03,4.42,4.46,4.42,4.46-2.03,4.46-4.42-2.03-4.46-4.46-4.46ZM72.73,18.37c-2.43,0-4.46,2.03-4.46,4.46s2.03,4.42,4.46,4.42,4.46-2.03,4.46-4.42-2.03-4.46-4.46-4.46ZM72.73,18.37c-2.43,0-4.46,2.03-4.46,4.46s2.03,4.42,4.46,4.42,4.46-2.03,4.46-4.42-2.03-4.46-4.46-4.46ZM72.73,18.37c-2.43,0-4.46,2.03-4.46,4.46s2.03,4.42,4.46,4.42,4.46-2.03,4.46-4.42-2.03-4.46-4.46-4.46Z"/>
        <path class="cls-1" d="M92.11,22.79v14.64h6.52v-14.64c0-4.46,3.66-8.08,8.12-8.08v-6.48c-8.08,0-14.64,6.44-14.64,14.56Z"/>
        <path class="cls-1" d="M123.38,8.23c-8.12,0-14.64,6.52-14.64,14.6s6.52,14.6,14.64,14.6c1.63,0,3.26-.32,4.74-.83v-7.24c-1.32.99-2.99,1.59-4.74,1.59-4.5,0-8.16-3.7-8.16-8.12s3.66-8.16,8.16-8.16,8.08,3.66,8.08,8.16v14.6h6.48v-14.6c0-8.08-6.52-14.6-14.56-14.6Z"/>
        <path class="cls-1" d="M165.44.11v22.72c0,4.42-3.66,8.12-8.08,8.12s-8.16-3.7-8.16-8.12,3.66-8.16,8.16-8.16c1.79,0,3.46.6,4.77,1.6v-7.25c-1.55-.59-3.06-.79-4.77-.79-8.08,0-14.64,6.52-14.64,14.6s6.56,14.6,14.64,14.6,14.6-6.56,14.6-14.6V.11h-6.52Z"/>
        <path class="cls-1" d="M187.2,25.58h18.5c.16-.96.28-1.91.28-2.83,0-2.59-.75-6.13-3.42-9.31-2.71-3.18-6.72-5.21-11.18-5.21-8.08,0-14.64,6.52-14.64,14.6s6.56,14.6,14.64,14.6c1.71,0,3.34-.28,4.97-.87v-7.36c-1.39,1.07-3.06,1.75-4.97,1.75-4.66,0-8.12-3.82-8.12-8.12s3.5-8.16,8.12-8.16c3.14,0,5.81,1.79,7.2,4.38h-11.38v6.53Z"/>
        <path class="cls-2" d="M214.02,31.03c-1.79,0-3.26,1.47-3.26,3.22s1.47,3.26,3.26,3.26,3.26-1.47,3.26-3.26-1.47-3.22-3.26-3.22Z"/>
      </g>
    </g>
  </g>
</svg>