<?xml version="1.0" encoding="UTF-8"?>
<svg id="Camada_2" data-name="Camada 2" xmlns="http://www.w3.org/2000/svg" viewBox="0 0 159.16 49.02">
  <defs>
    <style>
      .cls-1 {
        fill: #fff;
      }

      .cls-2 {
        fill: #d6feae;
      }
    </style>
  </defs>
  <g id="Camada_2-2" data-name="Camada 2">
    <g>
      <path class="cls-1" d="M14.61,18.27c-2.43,0-4.46,2.03-4.46,4.45s2.03,4.42,4.46,4.42,4.45-2.03,4.45-4.42-2.03-4.45-4.45-4.45ZM14.61,18.27c-2.43,0-4.46,2.03-4.46,4.45s2.03,4.42,4.46,4.42,4.45-2.03,4.45-4.42-2.03-4.45-4.45-4.45ZM14.61,18.27c-2.43,0-4.46,2.03-4.46,4.45s2.03,4.42,4.46,4.42,4.45-2.03,4.45-4.42-2.03-4.45-4.45-4.45ZM14.61,18.27c-2.43,0-4.46,2.03-4.46,4.45s2.03,4.42,4.46,4.42,4.45-2.03,4.45-4.42-2.03-4.45-4.45-4.45ZM14.61,18.27c-2.43,0-4.46,2.03-4.46,4.45s2.03,4.42,4.46,4.42,4.45-2.03,4.45-4.42-2.03-4.45-4.45-4.45ZM14.61,18.27c-2.43,0-4.46,2.03-4.46,4.45s2.03,4.42,4.46,4.42,4.45-2.03,4.45-4.42-2.03-4.45-4.45-4.45ZM14.61,18.27c-2.43,0-4.46,2.03-4.46,4.45s2.03,4.42,4.46,4.42,4.45-2.03,4.45-4.42-2.03-4.45-4.45-4.45ZM14.61,18.27c-2.43,0-4.46,2.03-4.46,4.45s2.03,4.42,4.46,4.42,4.45-2.03,4.45-4.42-2.03-4.45-4.45-4.45ZM14.61,18.27c-2.43,0-4.46,2.03-4.46,4.45s2.03,4.42,4.46,4.42,4.45-2.03,4.45-4.42-2.03-4.45-4.45-4.45ZM14.61,18.27c-2.43,0-4.46,2.03-4.46,4.45s2.03,4.42,4.46,4.42,4.45-2.03,4.45-4.42-2.03-4.45-4.45-4.45ZM14.61,18.27c-2.43,0-4.46,2.03-4.46,4.45s2.03,4.42,4.46,4.42,4.45-2.03,4.45-4.42-2.03-4.45-4.45-4.45ZM14.61,18.27c-2.43,0-4.46,2.03-4.46,4.45s2.03,4.42,4.46,4.42,4.45-2.03,4.45-4.42-2.03-4.45-4.45-4.45ZM14.61,18.27c-2.43,0-4.46,2.03-4.46,4.45s2.03,4.42,4.46,4.42,4.45-2.03,4.45-4.42-2.03-4.45-4.45-4.45ZM14.61,18.27c-2.43,0-4.46,2.03-4.46,4.45s2.03,4.42,4.46,4.42,4.45-2.03,4.45-4.42-2.03-4.45-4.45-4.45ZM14.61,18.27c-2.43,0-4.46,2.03-4.46,4.45s2.03,4.42,4.46,4.42,4.45-2.03,4.45-4.42-2.03-4.45-4.45-4.45ZM14.61,18.27c-2.43,0-4.46,2.03-4.46,4.45s2.03,4.42,4.46,4.42,4.45-2.03,4.45-4.42-2.03-4.45-4.45-4.45ZM14.61,18.27c-2.43,0-4.46,2.03-4.46,4.45s2.03,4.42,4.46,4.42,4.45-2.03,4.45-4.42-2.03-4.45-4.45-4.45ZM14.61,18.27c-2.43,0-4.46,2.03-4.46,4.45s2.03,4.42,4.46,4.42,4.45-2.03,4.45-4.42-2.03-4.45-4.45-4.45ZM14.61,18.27c-2.43,0-4.46,2.03-4.46,4.45s2.03,4.42,4.46,4.42,4.45-2.03,4.45-4.42-2.03-4.45-4.45-4.45ZM14.61,18.27c-2.43,0-4.46,2.03-4.46,4.45s2.03,4.42,4.46,4.42,4.45-2.03,4.45-4.42-2.03-4.45-4.45-4.45ZM14.61,8.12C6.53,8.12,0,14.65,0,22.72c0,2.03.4,3.9,1.16,5.69,2.27,5.22,7.36,8.92,13.45,8.92,8.07,0,14.6-6.53,14.6-14.61s-6.53-14.6-14.6-14.6ZM14.61,30.84c-4.46,0-8.12-3.66-8.12-8.12s3.66-8.11,8.12-8.11,8.11,3.66,8.11,8.11-3.66,8.12-8.11,8.12ZM14.61,18.27c-2.43,0-4.46,2.03-4.46,4.45s2.03,4.42,4.46,4.42,4.45-2.03,4.45-4.42-2.03-4.45-4.45-4.45ZM14.61,18.27c-2.43,0-4.46,2.03-4.46,4.45s2.03,4.42,4.46,4.42,4.45-2.03,4.45-4.42-2.03-4.45-4.45-4.45ZM14.61,18.27c-2.43,0-4.46,2.03-4.46,4.45s2.03,4.42,4.46,4.42,4.45-2.03,4.45-4.42-2.03-4.45-4.45-4.45ZM14.61,18.27c-2.43,0-4.46,2.03-4.46,4.45s2.03,4.42,4.46,4.42,4.45-2.03,4.45-4.42-2.03-4.45-4.45-4.45ZM14.61,18.27c-2.43,0-4.46,2.03-4.46,4.45s2.03,4.42,4.46,4.42,4.45-2.03,4.45-4.42-2.03-4.45-4.45-4.45ZM14.61,18.27c-2.43,0-4.46,2.03-4.46,4.45s2.03,4.42,4.46,4.42,4.45-2.03,4.45-4.42-2.03-4.45-4.45-4.45ZM14.61,18.27c-2.43,0-4.46,2.03-4.46,4.45s2.03,4.42,4.46,4.42,4.45-2.03,4.45-4.42-2.03-4.45-4.45-4.45ZM14.61,18.27c-2.43,0-4.46,2.03-4.46,4.45s2.03,4.42,4.46,4.42,4.45-2.03,4.45-4.42-2.03-4.45-4.45-4.45ZM14.61,18.27c-2.43,0-4.46,2.03-4.46,4.45s2.03,4.42,4.46,4.42,4.45-2.03,4.45-4.42-2.03-4.45-4.45-4.45ZM14.61,18.27c-2.43,0-4.46,2.03-4.46,4.45s2.03,4.42,4.46,4.42,4.45-2.03,4.45-4.42-2.03-4.45-4.45-4.45ZM14.61,18.27c-2.43,0-4.46,2.03-4.46,4.45s2.03,4.42,4.46,4.42,4.45-2.03,4.45-4.42-2.03-4.45-4.45-4.45ZM14.61,18.27c-2.43,0-4.46,2.03-4.46,4.45s2.03,4.42,4.46,4.42,4.45-2.03,4.45-4.42-2.03-4.45-4.45-4.45ZM14.61,18.27c-2.43,0-4.46,2.03-4.46,4.45s2.03,4.42,4.46,4.42,4.45-2.03,4.45-4.42-2.03-4.45-4.45-4.45ZM14.61,18.27c-2.43,0-4.46,2.03-4.46,4.45s2.03,4.42,4.46,4.42,4.45-2.03,4.45-4.42-2.03-4.45-4.45-4.45ZM14.61,18.27c-2.43,0-4.46,2.03-4.46,4.45s2.03,4.42,4.46,4.42,4.45-2.03,4.45-4.42-2.03-4.45-4.45-4.45ZM14.61,18.27c-2.43,0-4.46,2.03-4.46,4.45s2.03,4.42,4.46,4.42,4.45-2.03,4.45-4.42-2.03-4.45-4.45-4.45ZM14.61,18.27c-2.43,0-4.46,2.03-4.46,4.45s2.03,4.42,4.46,4.42,4.45-2.03,4.45-4.42-2.03-4.45-4.45-4.45ZM14.61,18.27c-2.43,0-4.46,2.03-4.46,4.45s2.03,4.42,4.46,4.42,4.45-2.03,4.45-4.42-2.03-4.45-4.45-4.45ZM14.61,18.27c-2.43,0-4.46,2.03-4.46,4.45s2.03,4.42,4.46,4.42,4.45-2.03,4.45-4.42-2.03-4.45-4.45-4.45ZM22.01,37.33c-1.28,3.14-4.14,5.21-7.6,5.21s-6.37-2.11-7.56-5.21H.12c1.28,6.68,7.28,11.69,14.29,11.69s13.05-4.89,14.32-11.69h-6.72ZM14.61,18.27c-2.43,0-4.46,2.03-4.46,4.45s2.03,4.42,4.46,4.42,4.45-2.03,4.45-4.42-2.03-4.45-4.45-4.45ZM14.61,18.27c-2.43,0-4.46,2.03-4.46,4.45s2.03,4.42,4.46,4.42,4.45-2.03,4.45-4.42-2.03-4.45-4.45-4.45Z"/>
      <path class="cls-1" d="M33.98,22.68v14.65h6.53v-14.65c0-4.45,3.66-8.07,8.12-8.07v-6.49c-8.08,0-14.65,6.45-14.65,14.56Z"/>
      <path class="cls-1" d="M65.26,8.12c-8.12,0-14.64,6.53-14.64,14.6s6.52,14.61,14.64,14.61c1.63,0,3.26-.32,4.73-.84v-7.24c-1.31.99-2.98,1.59-4.73,1.59-4.5,0-8.16-3.7-8.16-8.12s3.66-8.15,8.16-8.15,8.08,3.66,8.08,8.15v14.61h6.48v-14.61c0-8.07-6.52-14.6-14.56-14.6Z"/>
      <path class="cls-1" d="M107.31,0v22.72c0,4.42-3.66,8.12-8.07,8.12s-8.16-3.7-8.16-8.12,3.66-8.15,8.16-8.15c1.79,0,3.46.59,4.77,1.59v-7.24c-1.55-.6-3.06-.8-4.77-.8-8.08,0-14.64,6.53-14.64,14.6s6.56,14.61,14.64,14.61,14.6-6.57,14.6-14.61V0h-6.53Z"/>
      <path class="cls-1" d="M129.08,25.47h18.5c.16-.96.28-1.91.28-2.83,0-2.58-.76-6.12-3.42-9.31-2.71-3.18-6.73-5.21-11.18-5.21-8.08,0-14.65,6.53-14.65,14.6s6.57,14.61,14.65,14.61c1.71,0,3.34-.28,4.97-.88v-7.36c-1.39,1.07-3.06,1.75-4.97,1.75-4.66,0-8.12-3.82-8.12-8.12s3.5-8.15,8.12-8.15c3.14,0,5.81,1.79,7.2,4.37h-11.38v6.53Z"/>
      <path class="cls-2" d="M155.9,30.92c-1.79,0-3.27,1.47-3.27,3.22s1.48,3.27,3.27,3.27,3.26-1.48,3.26-3.27-1.47-3.22-3.26-3.22Z"/>
    </g>
  </g>
</svg>